HIERARCHY
ROOT root
{
	OFFSET	0	13.1	24.9
	CHANNELS 6  Xposition Yposition Zposition Xrotation Yrotation Zrotation
	JOINT spine_1
	{
		OFFSET	0	9.99999	0
		CHANNELS 3  Xrotation Yrotation Zrotation
		JOINT spine_2
		{
			OFFSET	0	112	-10
			CHANNELS 3  Xrotation Yrotation Zrotation
			JOINT spine_3
			{
				OFFSET	0	206.5	19.3
				CHANNELS 3  Xrotation Yrotation Zrotation
				JOINT spine_4
				{
					OFFSET	0	110.4	14.6
					CHANNELS 3  Xrotation Yrotation Zrotation
					JOINT neck_1
					{
						OFFSET	0	71.8	-50.3
						CHANNELS 3  Xrotation Yrotation Zrotation
						JOINT neck_2
						{
							OFFSET	0	86.2	-25.8
							CHANNELS 3  Xrotation Yrotation Zrotation
							JOINT head_ee
							{
								OFFSET	0	179.8	-8.7
								CHANNELS 3  Xrotation Yrotation Zrotation
								End Site
								{
									OFFSET	1	0	0
								}
							}
						}
					}
					JOINT left_clavicle
					{
						OFFSET	-43.2	22.4	-70.8
						CHANNELS 3  Xrotation Yrotation Zrotation
						JOINT left_shoulder
						{
							OFFSET	-93.9	-5.79999	48.7
							CHANNELS 3  Xrotation Yrotation Zrotation
							JOINT left_elbow
							{
								OFFSET	-291.4	-30.8	15.2
								CHANNELS 3  Xrotation Yrotation Zrotation
								JOINT left_lowarm_twist
								{
									OFFSET	-110.7	-3.89999	13.6
									CHANNELS 3  Xrotation Yrotation Zrotation
									JOINT left_hand
									{
										OFFSET	-110.7	-3.89999	13.6
										CHANNELS 3  Xrotation Yrotation Zrotation
										JOINT left_ee
										{
											OFFSET	-80.8	-5.10001	12.1
											CHANNELS 3  Xrotation Yrotation Zrotation
											End Site
											{
												OFFSET	1	0	0
											}
										}
									}
								}
							}
						}
					}
					JOINT right_clavicle
					{
						OFFSET	43.2	22.4	-70.8
						CHANNELS 3  Xrotation Yrotation Zrotation
						JOINT right_shoulder
						{
							OFFSET	93.9	-5.79999	48.7
							CHANNELS 3  Xrotation Yrotation Zrotation
							JOINT right_elbow
							{
								OFFSET	291.4	-30.8	15.2
								CHANNELS 3  Xrotation Yrotation Zrotation
								JOINT right_lowarm_twist
								{
									OFFSET	110.7	-3.89999	13.6
									CHANNELS 3  Xrotation Yrotation Zrotation
									JOINT right_hand
									{
										OFFSET	110.7	-3.89999	13.6
										CHANNELS 3  Xrotation Yrotation Zrotation
										JOINT right_ee
										{
											OFFSET	80.8	-5.10001	12.1
											CHANNELS 3  Xrotation Yrotation Zrotation
											End Site
											{
												OFFSET	1	0	0
											}
										}
									}
								}
							}
						}
					}
				}
			}
		}
	}
	JOINT left_hip
	{
		OFFSET	-82.8	-127.5	0.300001
		CHANNELS 3  Xrotation Yrotation Zrotation
		JOINT left_knee
		{
			OFFSET	-28.2	-396.7	2.2
			CHANNELS 3  Xrotation Yrotation Zrotation
			JOINT left_ankle
			{
				OFFSET	-11.7	-411.3	35.4
				CHANNELS 3  Xrotation Yrotation Zrotation
				JOINT left_toes
				{
					OFFSET	0	-60	-88.6
					CHANNELS 3  Xrotation Yrotation Zrotation
					JOINT left_foot_ee
					{
						OFFSET	-22.5	-16.5	-42.2
						CHANNELS 3  Xrotation Yrotation Zrotation
						End Site
						{
							OFFSET	1	0	0
						}
					}
				}
			}
		}
	}
	JOINT right_hip
	{
		OFFSET	82.8	-127.5	0.300001
		CHANNELS 3  Xrotation Yrotation Zrotation
		JOINT right_knee
		{
			OFFSET	28.2	-396.7	2.2
			CHANNELS 3  Xrotation Yrotation Zrotation
			JOINT right_ankle
			{
				OFFSET	11.7	-411.3	35.4
				CHANNELS 3  Xrotation Yrotation Zrotation
				JOINT right_toes
				{
					OFFSET	0	-60	-88.6
					CHANNELS 3  Xrotation Yrotation Zrotation
					JOINT right_foot_ee
					{
						OFFSET	22.5	-16.5	-42.2
						CHANNELS 3  Xrotation Yrotation Zrotation
						End Site
						{
							OFFSET	1	0	0
						}
					}
				}
			}
		}
	}
}
MOTION
Frames: 16
Frame Time: 0.02
2721.14 690.582 -1444.18 21.114 64.8524 -26.1085 -3.83161 0.524626 4.29535 -3.82139 0.2505 4.31996 -3.78725 -0.945524 4.22283 -3.81203 -0.267393 4.31895 -12.0814 18.6477 -4.98985 -12.9942 38.5326 0.985462 -0.0 0.0 -0.0 -0.532698 7.28919 -0.0853479 14.6516 -18.5701 53.2943 6.03334 -71.4689 4.34284 10.87 0.254338 -1.36317 -0.0645668 8.89691 3.27728 -0.0 0.0 -0.0 13.87 26.5942 -27.6245 -25.0085 31.8773 -54.8929 0.599392 16.5374 -0.0871083 51.8575 1.10497 6.30836 2.71854 -30.1406 -27.2836 0.0 0.0 0.0 -25.1054 23.4049 15.8552 -24.4047 0.21741 3.71056 39.5977 6.7607 -4.82504 -20.5998 0.0 0.0 -0.0 0.0 -0.0 23.3579 29.8588 -3.32406 0.174375 0.00721984 0.0257853 -19.1445 6.10412 -2.97615 7.76853 -0.0 -0.0 0.0 0.0 0.0 
2700.5 692.019 -1445.25 19.4486 65.7721 -24.6547 -4.10346 0.683676 4.35049 -4.09303 0.40573 4.38509 -4.04491 -0.833272 4.32438 -4.07097 -0.14055 4.40154 -11.0121 18.6189 -5.01832 -11.7016 38.4607 0.497978 -0.0 0.0 -0.0 -0.369017 7.0108 0.171803 12.4621 -19.53 52.964 6.11396 -71.696 4.41932 9.90021 0.242212 -1.2399 -0.0431567 7.26937 2.74733 -0.0 0.0 -0.0 13.9959 26.445 -27.9378 -26.3877 32.7582 -54.1718 0.628234 17.2867 -0.0954988 52.0978 1.12306 6.33328 2.8188 -29.8466 -27.8563 0.0 0.0 0.0 -24.2873 21.7492 15.2777 -24.627 0.212095 3.74427 35.5191 5.24876 -4.4486 -18.4681 0.0 0.0 -0.0 0.0 -0.0 24.2898 29.6774 -2.94617 -1.71751 -0.066898 -0.255079 -17.6613 6.43964 -2.74802 7.7035 -0.0 -0.0 0.0 0.0 0.0 
2688.62 686.741 -1450.38 18.379 65.6917 -23.4386 -3.94207 0.685611 4.34705 -3.93165 0.40788 4.38177 -3.88385 -0.8181 4.32411 -3.90992 -0.12561 4.39889 -6.47895 18.0342 -6.69358 -6.17148 38.2585 -3.21389 -0.0 0.0 -0.0 -0.755743 7.40843 -0.467738 10.2511 -19.4415 53.015 5.87681 -71.0119 4.19461 10.0084 0.243668 -1.25364 0.323832 7.08602 5.06487 -0.0 0.0 -0.0 13.9685 26.5206 -27.864 -23.4629 33.064 -54.2217 0.623222 17.1569 -0.0940147 52.0941 1.12277 6.33289 2.91467 -30.1134 -28.4957 0.0 0.0 0.0 -23.6639 21.0559 15.2104 -24.2678 0.220617 3.6898 38.2151 8.89834 -4.70971 -17.1533 0.0 0.0 -0.0 0.0 -0.0 24.5021 29.6692 -3.42015 -2.41209 -0.091773 -0.358773 -16.2478 8.24442 -2.54893 7.21386 -0.0 -0.0 0.0 0.0 0.0 
2670.67 692.651 -1456.04 16.5245 66.0221 -21.3179 -3.93989 0.772448 4.19847 -3.93023 0.50397 4.23901 -3.877 -0.685458 4.21352 -3.90176 -0.0120402 4.26879 -4.13157 17.4094 -8.13967 -3.26713 37.997 -5.80619 -0.0 0.0 -0.0 -1.26133 8.21625 -1.25267 7.63971 -20.7077 53.9946 5.7206 -70.5336 4.04712 8.03547 0.213038 -1.0035 0.743803 6.20786 7.4714 -0.0 0.0 -0.0 13.6821 26.2275 -27.2324 -21.8871 33.9984 -53.7456 0.699952 19.1233 -0.117908 52.1787 1.12916 6.34164 3.05566 -30.1338 -29.3846 0.0 0.0 0.0 -23.8028 21.0492 14.8084 -22.3435 0.260443 3.39721 35.6556 11.3543 -4.4849 -15.6593 0.0 0.0 -0.0 0.0 -0.0 24.5825 29.3881 -3.70397 -2.77739 -0.10435 -0.413424 -16.9214 7.03325 -2.63933 6.33842 -0.0 -0.0 0.0 0.0 0.0 
2650.32 701.948 -1465.16 14.8461 66.2553 -19.2087 -3.96195 0.827213 4.13951 -3.95259 0.562365 4.18365 -3.89571 -0.615234 4.17622 -3.92004 0.0514336 4.2209 -1.99979 16.8437 -9.03685 -0.671404 37.489 -7.71334 -0.0 0.0 -0.0 -1.55791 8.92107 -1.66984 4.92753 -21.4864 54.3603 5.29196 -69.0933 3.64478 6.55531 0.184412 -0.816594 1.01805 5.89439 9.16242 -0.0 0.0 -0.0 13.5952 26.4881 -26.9977 -20.8077 34.6942 -53.5677 0.744888 20.2538 -0.133048 52.0846 1.12206 6.33191 3.1391 -29.9847 -29.8931 0.0 0.0 0.0 -23.2736 20.6059 13.9358 -20.2563 0.292503 3.07857 35.0349 14.3829 -4.45404 -14.7516 0.0 0.0 -0.0 0.0 -0.0 24.326 28.8324 -4.57079 -3.57005 -0.130439 -0.532276 -17.9986 5.98891 -2.79513 5.75081 -0.0 -0.0 0.0 0.0 0.0 
2630.13 702.364 -1474.42 16.2473 67.038 -20.3318 -3.98611 0.749069 4.21417 -3.97637 0.479641 4.2532 -3.92468 -0.71635 4.21985 -3.94952 -0.0415494 4.27991 1.8032 16.8307 -8.60967 3.74633 36.74 -8.69587 -0.0 0.0 -0.0 -1.57976 9.58873 -1.60553 3.45201 -21.7699 54.8078 4.4271 -65.4668 2.84662 5.34711 0.157471 -0.664611 1.19543 6.72442 10.6598 -0.0 0.0 -0.0 13.6913 26.4783 -27.2225 -20.0289 35.7811 -53.3768 0.751234 20.4122 -0.135253 51.858 1.10501 6.30841 3.34593 -30.3628 -31.2686 0.0 0.0 0.0 -21.8251 17.2246 11.9455 -21.4426 0.275706 3.25981 34.1665 15.5306 -4.38106 -12.6952 0.0 0.0 -0.0 0.0 -0.0 24.9768 28.4014 -5.41067 -5.69324 -0.192188 -0.852249 -22.1741 5.57465 -3.44099 4.10471 -0.0 -0.0 0.0 0.0 0.0 
2612.53 710.542 -1477.86 14.8879 67.2458 -18.7358 -3.91748 0.908165 4.17573 -3.90801 0.640856 4.22493 -3.84449 -0.547222 4.23806 -3.86952 0.128335 4.27125 0.172594 16.0562 -9.88297 1.91988 36.5638 -9.57485 -0.0 0.0 -0.0 -1.13877 10.4641 -0.713177 2.42759 -22.5943 55.7294 4.10308 -63.7843 2.55383 4.25571 0.130383 -0.527827 1.30207 6.26293 11.1934 -0.0 0.0 -0.0 13.58 26.4694 -26.9648 -18.9719 35.9092 -52.6298 0.817002 22.034 -0.159063 51.959 1.1126 6.3189 3.29672 -29.7432 -30.873 0.0 0.0 0.0 -23.317 19.7547 11.6953 -18.0072 0.314035 2.73416 33.4524 17.3942 -4.3343 -13.5173 0.0 0.0 -0.0 0.0 -0.0 24.0931 28.1695 -5.54906 -4.94157 -0.171685 -0.738716 -19.9113 4.4503 -3.07396 4.46018 -0.0 -0.0 0.0 0.0 0.0 
2583.97 711.954 -1484.41 13.4635 66.9952 -17.4331 -3.84469 0.959281 4.32025 -3.83457 0.682698 4.3724 -3.7652 -0.541485 4.39209 -3.79207 0.158257 4.42245 0.99436 15.9957 -10.4554 2.97844 36.8423 -10.5665 -0.0 0.0 -0.0 -1.30138 11.9725 -0.769295 1.62135 -20.13 57.5073 3.69427 -61.3301 2.19094 3.41291 0.107684 -0.422562 1.28235 6.47164 11.1416 -0.0 0.0 -0.0 13.6072 26.3211 -27.0463 -18.3028 36.9889 -52.8522 0.839108 22.571 -0.167453 51.2776 1.06178 6.24795 3.32285 -30.4711 -31.1326 0.0 0.0 0.0 -22.8693 19.6144 10.4677 -21.0623 0.2815 3.20174 32.8861 17.3757 -4.27478 -13.1192 0.0 0.0 -0.0 0.0 -0.0 22.6322 27.9651 -5.58513 -5.85026 -0.196283 -0.875999 -20.3974 4.90433 -3.15534 4.04702 -0.0 -0.0 0.0 0.0 0.0 
2562.9 713.728 -1488.17 13.926 65.8865 -18.3076 -3.61954 0.983439 4.29639 -3.60955 0.708322 4.35012 -3.53922 -0.493347 4.37966 -3.56592 0.203837 4.40259 1.49519 15.748 -11.2068 3.66857 36.9676 -11.657 -0.0 0.0 -0.0 -0.983684 12.9354 -0.100453 0.246218 -20.9521 58.4864 2.54832 -51.6065 1.23224 2.57326 0.0835314 -0.318029 1.57998 4.4296 12.3569 -0.0 0.0 -0.0 13.6906 26.6268 -27.2024 -17.3085 37.4515 -52.6464 0.829552 22.3394 -0.163802 51.3261 1.06538 6.25302 3.09439 -29.9941 -29.6101 0.0 0.0 0.0 -23.131 19.0365 9.65366 -20.7967 0.285317 3.16117 33.3029 18.4781 -4.33624 -13.0578 0.0 0.0 -0.0 0.0 -0.0 20.7832 27.7624 -5.70933 -6.17424 -0.204526 -0.925035 -20.2704 4.96555 -3.13642 3.34195 -0.0 -0.0 0.0 0.0 0.0 
2534.23 715.411 -1501.48 16.0427 65.1802 -20.2312 -3.47302 0.873609 4.30525 -3.46291 0.59815 4.35199 -3.4017 -0.589775 4.35314 -3.42812 0.104436 4.39159 1.37724 15.6415 -9.16427 3.14151 35.145 -9.19605 -0.0 0.0 -0.0 -1.21012 14.7469 -0.210911 -0.682986 -17.6587 60.3847 1.83325 -42.2397 0.708176 1.09046 0.037143 -0.134317 1.70776 3.44079 12.841 -0.0 0.0 -0.0 13.5211 26.4306 -26.8327 -17.4702 39.6737 -53.8791 0.984075 25.9879 -0.227087 51.2864 1.06243 6.24886 2.88212 -30.0418 -28.2815 0.0 0.0 0.0 -21.2746 17.2948 6.16902 -29.7645 0.0530127 4.51641 36.2134 15.1359 -4.57983 -11.821 0.0 0.0 -0.0 0.0 -0.0 17.8444 25.1485 -5.30301 -7.53322 -0.236075 -1.13119 -16.6613 11.1601 -2.65928 5.04005 -0.0 -0.0 0.0 0.0 0.0 
2507.83 714.208 -1514.45 15.9764 64.9945 -19.6048 -3.3411 0.856683 4.20103 -3.33148 0.587872 4.24691 -3.27321 -0.561938 4.25041 -3.2984 0.115749 4.28577 0.99484 16.6376 -9.62481 2.94093 37.3097 -9.58442 -0.0 0.0 -0.0 -1.62765 16.4124 -0.622155 -1.43008 -16.2894 61.3212 1.43293 -35.3663 0.456865 -0.426009 -0.0152047 0.0522804 1.68997 4.03779 12.9504 -0.0 0.0 -0.0 13.1589 26.1002 -26.0328 -17.2076 41.5698 -54.6792 1.05726 27.6419 -0.260104 51.0933 1.04819 6.22866 2.54491 -29.4521 -26.0981 0.0 0.0 0.0 -19.3717 16.4183 4.14039 -33.3962 -0.10093 5.05236 38.2634 18.7008 -4.83727 -11.63 0.0 0.0 -0.0 0.0 -0.0 15.7425 20.9074 -6.65161 -8.52388 -0.255986 -1.28191 -12.1202 9.53942 -1.90772 5.71734 -0.0 -0.0 0.0 0.0 0.0 
2478.35 715.89 -1525.82 18.1519 65.391 -21.2534 -3.07966 0.716014 4.18861 -3.07002 0.448274 4.2256 -3.02354 -0.672897 4.19574 -3.0481 -0.00243444 4.24926 1.86474 15.5775 -9.05789 3.67637 34.8963 -9.24561 -0.0 0.0 -0.0 -1.88142 18.4176 -0.691029 -1.84362 -15.4004 61.9847 1.11032 -28.8109 0.285203 -1.26596 -0.0463217 0.155027 1.4805 5.64549 12.1521 -0.0 0.0 -0.0 13.3775 26.2668 -26.5192 -19.8569 42.9286 -56.0294 1.0548 27.5871 -0.258964 50.8583 1.03094 6.20399 3.06723 -30.2101 -29.4684 0.0 0.0 0.0 -19.126 17.5291 2.38104 -35.6145 -0.211591 5.37464 37.7689 15.2445 -4.73073 -11.8391 0.0 0.0 -0.0 0.0 -0.0 13.5605 17.7545 -7.29325 -11.3632 -0.298578 -1.71546 -6.39924 8.9546 -0.995278 2.55442 -0.0 -0.0 0.0 0.0 0.0 
2464.92 716.684 -1530.18 17.2347 64.8733 -19.4168 -2.7858 0.763474 4.27219 -2.77578 0.490336 4.31201 -2.72561 -0.632496 4.2935 -2.75133 0.0528569 4.33943 2.20832 15.4479 -9.72221 4.16846 35.1746 -10.1557 -0.0 0.0 -0.0 -2.46856 20.0469 -1.28663 -2.84155 -14.5008 63.4481 0.816796 -22.0289 0.158986 -3.00745 -0.115626 0.366563 1.13992 7.35537 10.5323 -0.0 0.0 -0.0 13.3804 25.6746 -26.5968 -17.9293 42.8535 -55.5458 1.14317 29.5215 -0.301209 51.2132 1.05702 6.2412 2.48064 -29.6462 -25.7412 0.0 0.0 0.0 -19.0702 18.8156 0.55907 -36.8678 -0.27962 5.5548 37.3027 11.6247 -4.64462 -11.6445 0.0 0.0 -0.0 0.0 -0.0 12.3385 17.6423 -8.12951 -10.2336 -0.284208 -1.54273 -3.6779 11.429 -0.577314 3.44189 -0.0 -0.0 0.0 0.0 0.0 
2442.71 721.307 -1534.29 17.9467 65.3084 -19.6568 -2.52499 0.727266 4.09395 -2.51579 0.465511 4.13184 -2.4707 -0.591878 4.11567 -2.49432 0.0649594 4.15743 1.659 16.2268 -10.478 3.81017 37.205 -10.8566 -0.0 0.0 -0.0 -3.17756 23.212 -1.69073 -2.35529 -13.5442 64.9498 0.672889 -18.4348 0.109195 -3.77267 -0.148108 0.458838 0.656737 11.5654 8.9754 -0.0 0.0 -0.0 13.0963 24.4111 -26.0779 -15.5823 43.3379 -55.2888 1.08959 28.3572 -0.275283 49.4859 0.932254 6.05859 2.73446 -29.8826 -27.3392 0.0 0.0 0.0 -17.4714 18.3521 -0.903827 -36.8332 -0.277687 5.54984 37.8831 10.8575 -4.69224 -12.2444 0.0 0.0 -0.0 0.0 -0.0 10.0637 15.7362 -8.18857 -10.8374 -0.292313 -1.63502 3.03193 8.46028 0.459779 0.943956 -0.0 -0.0 0.0 0.0 0.0 
2424.65 726.21 -1536.03 18.7209 65.0556 -19.9824 -2.60837 0.745074 3.95784 -2.5998 0.491923 3.99714 -2.55438 -0.538045 3.99121 -2.57659 0.0985152 4.02605 1.71851 17.0401 -10.0967 3.96325 38.3176 -10.4365 -0.0 0.0 -0.0 -3.09019 23.9954 -1.41228 -3.23998 -12.6058 65.3368 0.487461 -13.5757 0.0580219 -4.82713 -0.194886 0.585273 0.301663 12.99 7.25321 -0.0 0.0 -0.0 13.0841 24.4825 -26.0421 -14.5283 44.7987 -54.7528 1.03279 27.0943 -0.248856 48.5211 0.864979 5.95499 2.79926 -29.818 -27.7302 0.0 0.0 0.0 -15.9076 18.0437 -1.85509 -36.7326 -0.272091 5.53543 38.5281 9.37778 -4.74091 -12.3278 0.0 0.0 -0.0 0.0 -0.0 8.29785 14.2817 -8.16424 -10.7462 -0.291151 -1.62108 7.32752 11.073 1.11212 -0.437052 0.0 0.0 0.0 0.0 0.0 
2421.07 724.103 -1535.8 17.4529 64.8193 -18.4983 -2.51763 0.718237 3.84401 -2.50954 0.472366 3.88184 -2.46729 -0.521803 3.87552 -2.48823 0.0963263 3.90925 0.719055 16.014 -11.0303 2.76096 37.3563 -11.1344 -0.0 0.0 -0.0 -3.43447 23.4673 -1.99261 -3.43525 -11.0574 66.892 0.434651 -12.1512 0.0462639 -4.89804 -0.198115 0.593745 0.115212 15.7615 7.15444 -0.0 0.0 -0.0 12.8319 23.1481 -25.592 -11.6079 45.5074 -54.1543 1.08062 28.1596 -0.271034 48.5753 0.868716 5.96084 2.90956 -29.6268 -28.3886 0.0 0.0 0.0 -15.2513 17.7524 -2.18237 -36.2752 -0.24696 5.46979 39.2545 6.17343 -4.79359 -12.8687 0.0 0.0 -0.0 0.0 -0.0 7.73869 13.4292 -8.19904 -9.56026 -0.274022 -1.43991 9.31892 10.4941 1.39932 -2.24 0.0 0.0 0.0 0.0 0.0 
